<?xml version="1.0" standalone="no"?>
<!DOCTYPE svg PUBLIC "-//W3C//DTD SVG 20010904//EN"
 "http://www.w3.org/TR/2001/REC-SVG-20010904/DTD/svg10.dtd">
<svg version="1.0" xmlns="http://www.w3.org/2000/svg"
 width="256.000000pt" height="256.000000pt" viewBox="0 0 256.000000 256.000000"
 preserveAspectRatio="xMidYMid meet">
<metadata>
Created by potrace 1.11, written by Peter Selinger 2001-2013
</metadata>
<g transform="translate(0.000000,256.000000) scale(0.100000,-0.100000)"
fill="#000000" stroke="none">
<path d="M1367 2314 c-1 -1 -18 -4 -37 -7 -41 -5 -121 -26 -135 -35 -5 -4 -12
-7 -15 -7 -36 -5 -180 -120 -180 -145 0 -5 -6 -15 -13 -22 -13 -13 -45 -87
-53 -123 -3 -11 -6 -58 -8 -105 -3 -66 1 -97 16 -137 22 -60 54 -84 42 -30
-11 47 -12 146 -2 192 24 114 112 226 215 275 69 32 78 34 198 34 106 1 113
-1 187 -36 157 -74 268 -234 318 -454 28 -123 30 -340 5 -469 -13 -65 -48
-175 -56 -175 -5 0 -9 -8 -9 -18 0 -23 -81 -146 -128 -195 -55 -57 -158 -121
-237 -147 -56 -19 -92 -24 -185 -24 -131 -1 -184 11 -284 62 -66 35 -196 147
-196 170 0 5 -3 12 -7 14 -36 16 -118 201 -142 319 -33 167 -31 424 4 574 18
79 27 110 44 153 11 28 17 53 14 56 -4 3 -1 6 5 6 7 0 12 5 12 11 0 19 67 123
103 160 47 48 36 64 -29 43 -432 -140 -662 -589 -534 -1044 37 -130 93 -223
200 -330 115 -114 215 -177 369 -230 96 -33 145 -44 241 -55 77 -9 111 -14
119 -19 4 -3 8 -20 7 -38 -1 -32 -2 -33 -51 -35 -39 -2 -54 -8 -67 -25 -10
-13 -22 -28 -27 -34 -6 -8 -150 -11 -480 -10 l-471 1 0 -70 0 -70 467 0 c258
1 474 -1 481 -3 6 -2 12 -10 12 -17 0 -6 9 -20 21 -31 18 -16 39 -19 172 -19
169 -1 204 5 213 41 4 15 14 24 28 25 11 1 224 2 471 3 l450 1 3 67 3 68 -28
1 c-15 0 -228 2 -473 2 -322 2 -444 5 -443 13 1 6 -8 21 -21 33 -17 16 -36 22
-73 23 l-49 0 1 39 c0 21 2 40 5 40 3 1 16 3 30 4 201 16 365 63 499 142 296
174 433 422 425 765 -2 86 -8 134 -28 201 -23 79 -88 224 -105 237 -4 3 -18
21 -31 40 -37 54 -79 96 -155 154 -123 95 -276 163 -405 181 -51 8 -217 14
-223 9z"/>
</g>
</svg>
